<svg width="412" height="413" xmlns="http://www.w3.org/2000/svg" xmlns:xlink="http://www.w3.org/1999/xlink" xml:space="preserve" overflow="hidden"><defs><clipPath id="clip0"><rect x="1994" y="1031" width="412" height="413"/></clipPath></defs><g clip-path="url(#clip0)" transform="translate(-1994 -1031)"><path d="M1994 1237.5C1994 1123.45 2086.23 1031 2200 1031 2313.77 1031 2406 1123.45 2406 1237.5 2406 1351.55 2313.77 1444 2200 1444 2086.23 1444 1994 1351.55 1994 1237.5Z" fill="#99CCFF" fill-rule="evenodd"/><path d="M2035 1238C2035 1146.87 2108.87 1073 2200 1073 2291.13 1073 2365 1146.87 2365 1238 2365 1329.13 2291.13 1403 2200 1403 2108.87 1403 2035 1329.13 2035 1238Z" fill="#003366" fill-rule="evenodd"/></g></svg>